# xmcd
#
# Track frame offsets: 
#        187
#        19937
#        36935
#        50957
#        64877
#        82205
#        99220
#        125065
#        139162
#        161215
#        180220
#        197407
#        220442
#        237497
#        256247
#        268327
#        282097
#
# Disc length: 4126 seconds
#
# Revision: 0
# Processed by: cddbd v1.5.2PL0 Copyright (c) Steve Scherf et al.
# Submitted via: ExactAudioCopy v0.95b4
#
DISCID=08101c11
DTITLE=The Mavericks - Trampoline
DYEAR=1998
DGENRE=Indie
TTITLE0=Dance The Night Away
TTITLE1=Tell Me Why
TTITLE2=I Should Know
TTITLE3=Someone Should Tell Her
TTITLE4=To Be With You
TTITLE5=I've Got This Feeling
TTITLE6=Fool #1
TTITLE7=I Don't Even Know Your Name
TTITLE8=I Hope You Want Me Too
TTITLE9=Melbourne Mambo
TTITLE10=Dolores
TTITLE11=Save A Prayer
TTITLE12=Dream River
TTITLE13=All I Get
TTITLE14=Panatella
TTITLE15=She Does
TTITLE16=La Mucara
EXTD=
EXTT0=
EXTT1=
EXTT2=
EXTT3=
EXTT4=
EXTT5=
EXTT6=
EXTT7=
EXTT8=
EXTT9=
EXTT10=
EXTT11=
EXTT12=
EXTT13=
EXTT14=
EXTT15=
EXTT16=
PLAYORDER=
